<svg width="160" height="152" viewBox="0 0 160 152" fill="none" xmlns="http://www.w3.org/2000/svg">
<path d="M106.473 4.14355H53.8266C35.2454 4.14355 31.0497 13.4343 28.752 24.9227L20.2605 65.3817H140.139L131.648 24.9227C129.15 13.4343 125.054 4.14355 106.473 4.14355Z" stroke="white" stroke-width="8.16124" stroke-linecap="round" stroke-linejoin="round"/>
<path d="M154.925 131.417C155.725 140.208 148.732 147.801 139.741 147.801H125.655C117.563 147.801 116.464 144.304 114.966 140.109L113.467 135.613C111.369 129.519 109.971 125.324 99.1818 125.324H60.8206C50.0315 125.324 48.4331 130.019 46.535 135.613L45.0366 140.109C43.638 144.404 42.539 147.801 34.3473 147.801H20.2614C11.2705 147.801 4.17789 140.208 5.07698 131.417L9.27264 85.7635C10.3715 74.4749 12.4694 65.2842 32.1495 65.2842H127.753C147.433 65.2842 149.531 74.4749 150.63 85.7635L154.925 131.417Z" stroke="white" stroke-width="8.16124" stroke-linecap="round" stroke-linejoin="round"/>
<path d="M20.1602 42.9033H12.6677" stroke="white" stroke-width="8.16124" stroke-linecap="round" stroke-linejoin="round"/>
<path d="M147.532 42.9033H140.04" stroke="white" stroke-width="8.16124" stroke-linecap="round" stroke-linejoin="round"/>
<path d="M35.1448 95.3516H57.6221" stroke="white" stroke-width="8.16124" stroke-linecap="round" stroke-linejoin="round"/>
<path d="M102.577 95.3516H125.054" stroke="white" stroke-width="8.16124" stroke-linecap="round" stroke-linejoin="round"/>
</svg>
