<svg width="265" height="275" viewBox="0 0 265 275" fill="none" xmlns="http://www.w3.org/2000/svg">
<path d="M89.4694 61.2117C89.4694 29.5934 109.867 6.5 131.939 6.5C154.011 6.5 174.408 29.5934 174.408 61.2117C174.408 92.8301 154.011 115.923 131.939 115.923C109.867 115.923 89.4694 92.8301 89.4694 61.2117ZM40.5 171.393C40.5 149.476 56.9858 131.614 78.1271 129.156C92.1676 143.871 111.064 153.408 131.939 153.408C152.815 153.408 171.713 143.869 185.753 129.153C207.081 131.597 223.378 149.445 223.378 171.393V189.378H40.5V171.393Z" stroke="white" stroke-width="13"/>
<path d="M25.8309 233.331H26.912L27.2539 232.305L34.4411 210.743L41.6284 232.305L41.9703 233.331H43.0514H64.6061L46.4195 247.88L45.6028 248.534L45.9335 249.526L52.9376 270.538L35.3782 256.49L34.4411 255.741L33.5041 256.49L15.9447 270.538L22.9487 249.526L23.2795 248.534L22.4628 247.88L4.27617 233.331H25.8309Z" stroke="white" stroke-width="3"/>
<path d="M221.831 233.331H222.912L223.254 232.305L230.441 210.743L237.628 232.305L237.97 233.331H239.051H260.606L242.42 247.88L241.603 248.534L241.934 249.526L248.938 270.538L231.378 256.49L230.441 255.741L229.504 256.49L211.945 270.538L218.949 249.526L219.279 248.534L218.463 247.88L200.276 233.331H221.831Z" stroke="white" stroke-width="3"/>
<path d="M123.831 233.331H124.912L125.254 232.305L132.441 210.743L139.628 232.305L139.97 233.331H141.051H162.606L144.42 247.88L143.603 248.534L143.934 249.526L150.938 270.538L133.378 256.49L132.441 255.741L131.504 256.49L113.945 270.538L120.949 249.526L121.279 248.534L120.463 247.88L102.276 233.331H123.831Z" stroke="white" stroke-width="3"/>
</svg>
