<svg width="168" height="187" viewBox="0 0 168 187" fill="none" xmlns="http://www.w3.org/2000/svg">
<path d="M163.959 85.3084C163.959 129.477 131.894 170.846 88.0862 182.949C85.1055 183.762 81.8538 183.762 78.8731 182.949C35.0652 170.846 3 129.477 3 85.3084V45.6555C3 38.2489 8.60023 29.8488 15.5552 27.0487L65.8663 6.45492C77.1569 1.84836 89.8927 1.84836 101.183 6.45492L151.494 27.0487C158.359 29.8488 164.049 38.2489 164.049 45.6555L163.959 85.3084Z" stroke="white" stroke-width="6" stroke-linecap="round" stroke-linejoin="round"/>
<path d="M72.8081 121.716C71.1976 121.716 69.6676 121.072 68.5403 119.945L45.7514 97.156C43.4162 94.8208 43.4162 90.9556 45.7514 88.6204C48.0866 86.2852 51.9518 86.2852 54.287 88.6204L72.8081 107.141L114.198 65.7514C116.533 63.4162 120.398 63.4162 122.733 65.7514C125.069 68.0866 125.069 71.9518 122.733 74.287L77.0759 119.945C75.9486 121.072 74.4186 121.716 72.8081 121.716Z" fill="white"/>
<path d="M72.8081 121.716C71.1976 121.716 69.6676 121.072 68.5403 119.945L45.7514 97.156C43.4162 94.8208 43.4162 90.9556 45.7514 88.6204C48.0866 86.2852 51.9518 86.2852 54.287 88.6204L72.8081 107.141L114.198 65.7514C116.533 63.4162 120.398 63.4162 122.733 65.7514C125.069 68.0866 125.069 71.9518 122.733 74.287L77.0759 119.945C75.9486 121.072 74.4186 121.716 72.8081 121.716Z" stroke="black"/>
</svg>
