<svg width="208" height="208" viewBox="0 0 208 208" fill="none" xmlns="http://www.w3.org/2000/svg">
<path d="M84.125 86.625H85.2061L85.548 85.5993L103.5 31.7434L121.452 85.5993L121.794 86.625H122.875H176.724L131.625 122.704L130.809 123.357L131.139 124.349L148.908 177.656L104.437 142.079L103.5 141.329L102.563 142.079L58.0918 177.656L75.8605 124.349L76.1913 123.357L75.3745 122.704L30.2762 86.625H84.125Z" stroke="white" stroke-width="3"/>
<path d="M1.5 104C1.5 47.2818 47.2818 1.5 104 1.5C160.718 1.5 206.5 47.2818 206.5 104C206.5 160.718 160.718 206.5 104 206.5C47.2818 206.5 1.5 160.718 1.5 104Z" stroke="white" stroke-width="3"/>
</svg>
